<svg xmlns="http://www.w3.org/2000/svg" width="93" height="72" fill="none" viewBox="0 0 93 72"><path fill="#fff" d="M0 0h92.33v72H0z"/><path fill="#838280" d="M25.319 8.076c-1.384.178-3.128.7-4.498 1.358-1.612.769-2.788 1.586-4.054 2.8-.671.652-.81.817-.74.885.145.145 2.297 1.222 3.238 1.627 1.75.755 3.514 1.317 5.03 1.626.795.158 2.373.35 2.456.302.027-.02.055-1.976.055-4.357V8l-.498.007c-.277.007-.72.041-.99.069M27.844 12.303c0 2.374.027 4.344.055 4.392.062.096 1.591.007 2.664-.158 2.546-.391 5.106-1.386 7.59-2.965.325-.205.601-.384.615-.398.056-.048-.692-.83-1.294-1.345-2.006-1.743-4.137-2.854-6.62-3.458-.782-.186-2.07-.37-2.637-.37h-.373zm-12.855 1.921c-.284.364-1.059 1.62-1.356 2.203-.567 1.112-1.093 2.65-1.35 3.919-.151.74-.318 2.36-.255 2.518.034.082 1.003.096 7.389.082l7.354-.02v-5.147l-.83-.082c-1.377-.144-2.594-.405-4.186-.886-1.584-.487-4.144-1.578-5.687-2.436-.401-.22-.768-.405-.802-.405-.042 0-.166.117-.277.254m23.82.2c-1.32.885-3.182 1.79-4.863 2.367-1.688.576-3.044.844-4.96.981l-1.108.076v5.078h14.737l-.014-.686c-.055-2.327-1.08-5.319-2.56-7.48-.256-.378-.519-.694-.574-.7s-.353.157-.657.363M12 24.05c0 .035.035.378.07.769a15.54 15.54 0 0 0 2.268 6.615c.464.748.92 1.338 1.018 1.338.041 0 .809-.363 1.702-.81 3.002-1.502 5.59-2.367 8.032-2.69a67 67 0 0 0 1.37-.192l.311-.048.021-2.525.014-2.518h-7.403c-4.303 0-7.403.027-7.403.061m15.844 2.443c0 1.956.02 2.505.09 2.505.041 0 .518.034 1.051.069 3.605.254 6.504 1.249 9.977 3.431.2.123.408.206.463.185.16-.061 1.087-1.51 1.523-2.36.954-1.88 1.515-3.81 1.674-5.772l.048-.562H27.844zm.041 3.72c-.062.158-.041 8.386.021 8.42.028.02.387 0 .81-.034 3.424-.31 6.745-1.84 9.257-4.269l.698-.672-.186-.165c-.582-.5-3.17-1.84-4.414-2.285-1.896-.68-4.062-1.112-5.577-1.112-.463 0-.574.02-.609.117m-2.082 0c-1.951.254-4.297.906-6.262 1.75-.83.357-2.643 1.242-3.168 1.544l-.305.178.581.577a15.03 15.03 0 0 0 7.68 4.096c.858.172 2.318.337 2.422.275.027-.02.055-1.935.055-4.255v-4.213l-.395.007a9 9 0 0 0-.608.04"/><path fill="#01519A" d="m61.275 42.703.02 11.996 3.073.02c2.414.014 3.085 0 3.134-.069.027-.048.055-.46.055-.905v-.817l.644.61c.996.962 1.895 1.504 3.071 1.854.54.164.727.185 1.612.185 1.183 0 1.744-.117 2.733-.597 2.249-1.07 3.91-3.383 4.546-6.307.221-1.022.221-3.253 0-4.316-.706-3.404-2.802-5.916-5.653-6.753-.858-.254-2.193-.267-3.079-.034-1.217.322-2.165.871-3.217 1.873l-.657.618-.014-4.516-.014-4.66c-.007-.136-.062-.136-3.14-.157l-3.128-.014zm10.682-1.146c1.578.762 2.595 3.02 2.38 5.284-.256 2.69-2.034 4.632-3.964 4.323-.664-.103-1.114-.357-1.709-.947-.436-.432-.595-.652-.85-1.18a6.2 6.2 0 0 1-.603-3.514c.208-1.784 1.059-3.28 2.214-3.89.609-.323.72-.35 1.425-.33.554.014.685.048 1.107.254m-27.37-7.899c0 1.304-.028 2.34-.069 2.436l-.07.179h-3.32v2.47l1.716.014 1.709.02.007 7.927.013 7.926 3.605.02 3.605.014v-15.92h1.619c1.411 0 1.625-.014 1.66-.11.055-.138.055-2.004 0-2.203-.041-.151-.055-.158-1.647-.172l-1.598-.02-.02-2.423-.014-2.415h-7.196zm-31.238 8.05c-.02.048-.027 2.992-.02 6.54l.02 6.45 3.578.021 3.576.014.042-.357c.02-.199.034-3.143.02-6.54l-.02-6.176-3.584-.02c-2.83-.014-3.59 0-3.611.068m10.482 6.471v6.554l3.584-.014 3.577-.02v-13.04l-3.577-.02-3.584-.013zm9.756 0v6.554l3.583-.014 3.577-.02.021-6.54.014-6.533h-7.195zm20.873-2.662c-.028.02-.048.899-.048 1.942v1.9l1.37.035c.747.02 1.73.02 2.179 0l.81-.034-.014-1.929-.021-1.928-2.117-.02c-1.163-.008-2.131.006-2.159.034"/><path fill="#838280" d="M13.612 57.965a.4.4 0 0 0-.09.247v.158h5.328v1.235h-1.937c-1.689 0-1.944.014-1.986.103-.02.062-.028.124-.007.138.014.02.297.11.63.206.747.212 1.162.404 1.439.658.29.275.249.467-.146.659-.408.213-.636.2-.913-.041-.346-.295-.526-.37-.796-.316-.262.048-.332.158-.27.412.063.233.27.35.845.473.54.11.92.282 1.646.749.415.267.505.294.644.233.09-.035.159-.09.159-.117s-.346-.24-.768-.48c-.491-.282-.733-.453-.671-.48.048-.028.256-.09.45-.138.574-.13.83-.398.705-.734-.069-.179-.546-.508-.982-.673-.18-.068-.346-.15-.367-.178-.02-.034.491-.062 1.142-.062h1.176l.02 1.009.021 1.016.243.116c.131.062.31.13.4.158l.153.041V58.37h1.591v3.685l.353.151c.2.076.38.144.415.144s.07-.885.076-1.976l.021-1.97 2.373-.02 2.366-.014v1.373H25.36c-1.508 0-1.875.048-1.875.233 0 .13.803.858 1.01.906.236.062.374-.082.374-.384v-.254l.477-.035c.263-.02.713-.02 1.004 0l.525.035v1.818l.229.103c.117.055.304.117.415.144l.187.041v-3.98h2.214v1.716h-.256c-.36 0-.575.068-.575.178 0 .096.7.61 1.1.817a.67.67 0 0 0 .395.075c.138-.034.166-.089.166-.315v-.275h2.49v1.441l.229.138.221.137h-.311c-.408 0-.83.123-.83.233 0 .09.47.453.588.453.041 0 .228-.082.429-.185.297-.144.401-.165.58-.117.119.034.264.124.312.206.09.123.083.165-.041.322-.242.302-.74.42-1.62.371-.816-.041-1.161-.13-2.165-.57-.519-.226-.782-.267-.782-.11 0 .07.865.481 1.53.728.954.35 2.22.487 2.933.309.325-.082.761-.419.823-.645.07-.254-.207-.584-.657-.776l-.408-.185V58.37h5.88v.892h-2.179c-1.197 0-2.18.028-2.18.055 0 .035.09.137.195.24.173.165.249.186.657.186.256 0 .463.027.463.054 0 .035-.062.117-.138.186-.2.178-.18.508.056.83.394.542 1.494 1.4 1.784 1.4a.35.35 0 0 0 .236-.103c.055-.062.055-.103.014-.103-.042 0-.312-.158-.602-.357-.554-.363-.934-.823-.934-1.132 0-.226.387-.624.678-.707.138-.034.636-.068 1.107-.068h.844v2.326l.38.137c.215.083.401.144.415.144.021 0 .035-.899.035-1.99v-1.99h2.214v1.716h-.256c-.36 0-.574.068-.574.178 0 .117.9.748 1.217.851.298.103.43.014.457-.295l.02-.22h2.491l-.02.405a4.6 4.6 0 0 0 .02.762c.042.35.049.364.326.44.152.047.318.102.373.123.076.027.097-.295.11-1.942l.022-1.983 1.093-.021 1.086-.02v1.722h-.297c-.166 0-.36.048-.436.103-.132.096-.125.103.041.247.263.212.879.604 1.066.68.09.033.228.04.311.02.118-.028.145-.09.145-.302v-.268h1.239c1.404 0 1.328-.034 1.266.604-.014.192-.007.48.014.645.041.282.062.309.339.384.159.048.332.103.38.124.063.034.083-.384.083-1.956V58.37h1.038v-.412H36.195c-10.101 0-19.29-.02-20.43-.04-1.668-.035-2.083-.028-2.153.047m19.629 1.263v.858H30.75V58.37h2.49zm13.131.014.02.844h-2.566V58.37l1.266.014 1.26.02zm6.317-.844c.014.013.02.404.007.857l-.02.83H50.19v-.809c0-.446.021-.837.049-.858.048-.048 2.4-.068 2.449-.02"/></svg>